<?xml version="1.0" encoding="UTF-8"?>
<svg id="Layer_1" xmlns="http://www.w3.org/2000/svg" version="1.1" viewBox="0 0 273.51 60.54">
  <!-- Generator: Adobe Illustrator 30.1.0, SVG Export Plug-In . SVG Version: 2.1.1 Build 136)  -->
  <defs>
    <style>
      .st0 {
        fill: #1db954;
      }

      .st1 {
        fill: #fff;
      }
    </style>
  </defs>
  <path class="st1" d="M1.5,51.66c.9.3,1.38.36,2.28.36,2.28,0,2.94-1.26,2.94-3.9V15.18h9.24v34.14c0,6.72-4.08,11.22-11.28,11.22-1.32,0-2.52-.06-4.68-.72l1.5-8.16ZM6.06,5.22c0-2.94,2.34-5.22,5.28-5.22s5.22,2.28,5.22,5.22-2.34,5.28-5.22,5.28-5.28-2.34-5.28-5.28Z"/>
  <path class="st1" d="M21.66,36.36c0-5.52,3.9-8.94,11.1-9.48l8.4-.66v-.48c0-2.94-1.8-4.5-5.1-4.5-3.9,0-6,1.5-6,4.2h-7.68c0-6.78,5.58-11.22,14.16-11.22s13.62,4.86,13.62,13.44v17.52h-8.16l-.6-3.96c-.96,2.76-4.92,4.74-9.42,4.74-6.36,0-10.32-3.72-10.32-9.6ZM41.22,33.96v-1.62l-4.68.42c-4.02.36-5.46,1.26-5.46,3.18,0,2.16,1.32,3.18,4.14,3.18,3.54,0,6-1.74,6-5.16Z"/>
  <path class="st1" d="M189.21,5.22c0-2.94,2.34-5.22,5.28-5.22s5.22,2.28,5.22,5.22-2.34,5.28-5.22,5.28-5.28-2.34-5.28-5.28ZM189.93,15.18h9.24v30h-9.24V15.18Z"/>
  <path class="st1" d="M206.13,45.18V15.18h8.7l.6,3.12c1.86-2.58,5.28-4.08,9.18-4.08,7.14,0,11.28,4.56,11.28,12.42v18.54h-9.24v-16.32c0-3.78-2.1-6.24-5.28-6.24-3.66,0-6,2.4-6,6.12v16.44h-9.24Z"/>
  <path class="st1" d="M255.39,14.16c4.08,0,7.32,1.56,8.94,4.02l.48-3h8.7v28.08c0,10.74-6.18,17.22-16.44,17.22-9.18,0-15.36-5.22-16.2-13.74h9.36c.18,3.36,2.7,5.34,6.78,5.34,4.44,0,7.26-2.64,7.26-6.9v-3.9c-1.8,2.16-5.16,3.54-9.06,3.54-8.4,0-14.22-6.18-14.22-15.18s5.94-15.48,14.4-15.48ZM257.25,36.78c4.2,0,7.02-2.94,7.02-7.38s-2.82-7.2-7.08-7.2-6.9,2.94-6.9,7.2,2.88,7.38,6.96,7.38Z"/>
  <g>
    <path class="st0" d="M57.12,45.18V15.18h8.64l.6,3.12c1.5-2.1,4.44-4.08,8.76-4.08s7.38,2.1,9.12,5.28c1.56-3.18,5.1-5.28,9.42-5.28,7.74,0,11.58,4.5,11.58,11.34v19.62h-9.24v-17.04c0-3.78-1.98-5.58-4.92-5.58-2.64,0-5.28,1.44-5.28,6.54v16.08h-9.24v-17.04c0-3.72-1.92-5.52-4.86-5.52-2.64,0-5.34,1.44-5.34,6.48v16.08h-9.24Z"/>
    <path class="st0" d="M143.05,20.08c.42-.93,1.03-1.79,1.03-1.79,1.5-2.1,4.44-4.08,8.76-4.08s7.38,2.1,9.12,5.28c1.56-3.18,5.1-5.28,9.42-5.28,7.74,0,11.58,4.5,11.58,11.34v19.62h-9.24v-17.04c0-3.78-1.98-5.58-4.92-5.58-2.64,0-5.28,1.44-5.28,6.54v16.08h-9.24v-17.04c0-3.72-1.92-5.52-4.86-5.52-2.64,0-5.34,1.44-5.34,6.48"/>
    <path class="st0" d="M104.19,20.08c.42-.93,1.03-1.79,1.03-1.79,1.5-2.1,4.44-4.08,8.76-4.08s7.38,2.1,9.12,5.28c1.56-3.18,5.1-5.28,9.42-5.28,7.74,0,11.58,4.5,11.58,11.34v19.62h-9.24v-17.04c0-3.78-1.98-5.58-4.92-5.58-2.64,0-5.28,1.44-5.28,6.54v16.08h-9.24v-17.04c0-3.72-1.92-5.52-4.86-5.52-2.64,0-5.34,1.44-5.34,6.48"/>
  </g>
</svg>